<mxfile host="app.diagrams.net" modified="2023-03-27T16:43:29.926Z" agent="Mozilla/5.0 (Windows NT 10.0; Win64; x64) AppleWebKit/537.36 (KHTML, like Gecko) Chrome/111.0.0.0 Safari/537.36" etag="s46JlB-pjmnXGeNvIc6R" version="21.1.1" type="device">
  <diagram name="Strona-1" id="OfqFFOOCDhuB12aTQ-E6">
    <mxGraphModel dx="1050" dy="549" grid="1" gridSize="10" guides="1" tooltips="1" connect="1" arrows="1" fold="1" page="1" pageScale="1" pageWidth="827" pageHeight="1169" math="0" shadow="0">
      <root>
        <mxCell id="0" />
        <mxCell id="1" parent="0" />
        <mxCell id="TlI6BRnu6aYOE0vAKDnJ-5" value="" style="edgeStyle=orthogonalEdgeStyle;rounded=0;orthogonalLoop=1;jettySize=auto;html=1;" parent="1" source="TlI6BRnu6aYOE0vAKDnJ-2" target="TlI6BRnu6aYOE0vAKDnJ-3" edge="1">
          <mxGeometry relative="1" as="geometry" />
        </mxCell>
        <mxCell id="TlI6BRnu6aYOE0vAKDnJ-2" value="Start" style="ellipse;whiteSpace=wrap;html=1;" parent="1" vertex="1">
          <mxGeometry x="354" y="30" width="120" height="80" as="geometry" />
        </mxCell>
        <mxCell id="TlI6BRnu6aYOE0vAKDnJ-7" value="" style="edgeStyle=orthogonalEdgeStyle;rounded=0;orthogonalLoop=1;jettySize=auto;html=1;" parent="1" source="TlI6BRnu6aYOE0vAKDnJ-3" target="TlI6BRnu6aYOE0vAKDnJ-6" edge="1">
          <mxGeometry relative="1" as="geometry" />
        </mxCell>
        <mxCell id="TlI6BRnu6aYOE0vAKDnJ-3" value="Podaj n,a,b,c" style="shape=parallelogram;perimeter=parallelogramPerimeter;whiteSpace=wrap;html=1;fixedSize=1;" parent="1" vertex="1">
          <mxGeometry x="354" y="150" width="120" height="60" as="geometry" />
        </mxCell>
        <mxCell id="TlI6BRnu6aYOE0vAKDnJ-9" value="" style="edgeStyle=orthogonalEdgeStyle;rounded=0;orthogonalLoop=1;jettySize=auto;html=1;" parent="1" source="TlI6BRnu6aYOE0vAKDnJ-6" target="TlI6BRnu6aYOE0vAKDnJ-8" edge="1">
          <mxGeometry relative="1" as="geometry" />
        </mxCell>
        <mxCell id="TlI6BRnu6aYOE0vAKDnJ-6" value="Wywołaj program funkcja(n,a,b,c)" style="whiteSpace=wrap;html=1;" parent="1" vertex="1">
          <mxGeometry x="354" y="290" width="120" height="60" as="geometry" />
        </mxCell>
        <mxCell id="TlI6BRnu6aYOE0vAKDnJ-13" value="Tak" style="edgeStyle=orthogonalEdgeStyle;rounded=0;orthogonalLoop=1;jettySize=auto;html=1;" parent="1" source="TlI6BRnu6aYOE0vAKDnJ-8" target="TlI6BRnu6aYOE0vAKDnJ-12" edge="1">
          <mxGeometry relative="1" as="geometry" />
        </mxCell>
        <mxCell id="TlI6BRnu6aYOE0vAKDnJ-17" value="NIe" style="edgeStyle=orthogonalEdgeStyle;rounded=0;orthogonalLoop=1;jettySize=auto;html=1;" parent="1" source="TlI6BRnu6aYOE0vAKDnJ-8" target="TlI6BRnu6aYOE0vAKDnJ-16" edge="1">
          <mxGeometry relative="1" as="geometry" />
        </mxCell>
        <mxCell id="TlI6BRnu6aYOE0vAKDnJ-8" value="if n==1" style="rhombus;whiteSpace=wrap;html=1;" parent="1" vertex="1">
          <mxGeometry x="374" y="420" width="80" height="80" as="geometry" />
        </mxCell>
        <mxCell id="TlI6BRnu6aYOE0vAKDnJ-15" value="" style="edgeStyle=orthogonalEdgeStyle;rounded=0;orthogonalLoop=1;jettySize=auto;html=1;" parent="1" source="TlI6BRnu6aYOE0vAKDnJ-12" target="TlI6BRnu6aYOE0vAKDnJ-14" edge="1">
          <mxGeometry relative="1" as="geometry" />
        </mxCell>
        <mxCell id="TlI6BRnu6aYOE0vAKDnJ-12" value="Wypisz a→b" style="shape=parallelogram;perimeter=parallelogramPerimeter;whiteSpace=wrap;html=1;fixedSize=1;" parent="1" vertex="1">
          <mxGeometry x="514" y="425" width="216" height="70" as="geometry" />
        </mxCell>
        <mxCell id="TlI6BRnu6aYOE0vAKDnJ-14" value="End" style="ellipse;whiteSpace=wrap;html=1;" parent="1" vertex="1">
          <mxGeometry x="562" y="540" width="120" height="80" as="geometry" />
        </mxCell>
        <mxCell id="TlI6BRnu6aYOE0vAKDnJ-19" value="" style="edgeStyle=orthogonalEdgeStyle;rounded=0;orthogonalLoop=1;jettySize=auto;html=1;" parent="1" source="TlI6BRnu6aYOE0vAKDnJ-16" target="TlI6BRnu6aYOE0vAKDnJ-18" edge="1">
          <mxGeometry relative="1" as="geometry" />
        </mxCell>
        <mxCell id="TlI6BRnu6aYOE0vAKDnJ-16" value="funkcja(n-1,a,c,b)" style="whiteSpace=wrap;html=1;" parent="1" vertex="1">
          <mxGeometry x="130" y="525" width="120" height="60" as="geometry" />
        </mxCell>
        <mxCell id="TlI6BRnu6aYOE0vAKDnJ-21" value="" style="edgeStyle=orthogonalEdgeStyle;rounded=0;orthogonalLoop=1;jettySize=auto;html=1;" parent="1" source="TlI6BRnu6aYOE0vAKDnJ-18" target="TlI6BRnu6aYOE0vAKDnJ-20" edge="1">
          <mxGeometry relative="1" as="geometry" />
        </mxCell>
        <mxCell id="TlI6BRnu6aYOE0vAKDnJ-18" value="Wypisz a→b" style="shape=parallelogram;perimeter=parallelogramPerimeter;whiteSpace=wrap;html=1;fixedSize=1;" parent="1" vertex="1">
          <mxGeometry x="85" y="665" width="210" height="65" as="geometry" />
        </mxCell>
        <mxCell id="TlI6BRnu6aYOE0vAKDnJ-22" style="edgeStyle=orthogonalEdgeStyle;rounded=0;orthogonalLoop=1;jettySize=auto;html=1;" parent="1" source="TlI6BRnu6aYOE0vAKDnJ-20" edge="1">
          <mxGeometry relative="1" as="geometry">
            <mxPoint x="410" y="370" as="targetPoint" />
            <Array as="points">
              <mxPoint x="60" y="843" />
              <mxPoint x="60" y="370" />
            </Array>
          </mxGeometry>
        </mxCell>
        <mxCell id="TlI6BRnu6aYOE0vAKDnJ-20" value="funkcja(n-1,c,b,a)" style="whiteSpace=wrap;html=1;" parent="1" vertex="1">
          <mxGeometry x="130" y="812.5" width="120" height="60" as="geometry" />
        </mxCell>
      </root>
    </mxGraphModel>
  </diagram>
</mxfile>
